<svg width="10" height="6" viewBox="0 0 10 6" fill="none" xmlns="http://www.w3.org/2000/svg">
<path d="M3.85449 1.14551C4.26386 0.736145 4.46854 0.531461 4.70596 0.458421C4.89756 0.399478 5.10244 0.399478 5.29404 0.458421C5.53146 0.531461 5.73614 0.736145 6.14551 1.14551L8.23449 3.23449C9.12034 4.12034 9.56326 4.56326 9.58428 4.94505C9.60095 5.24813 9.47907 5.54238 9.25297 5.74489C8.96815 6 8.34176 6 7.08897 6H5H2.91103C1.65824 6 1.03185 6 0.747031 5.74489C0.520927 5.54238 0.399045 5.24813 0.415724 4.94505C0.436735 4.56326 0.879661 4.12034 1.76551 3.23449L3.85449 1.14551Z" fill="#2EF2BB"/>
</svg>
