<svg width="10" height="6" viewBox="0 0 10 6" fill="none" xmlns="http://www.w3.org/2000/svg">
<path d="M6.14551 4.85449C5.73614 5.26386 5.53146 5.46854 5.29404 5.54158C5.10244 5.60052 4.89756 5.60052 4.70596 5.54158C4.46854 5.46854 4.26386 5.26386 3.85449 4.85449L1.76551 2.76551C0.879662 1.87966 0.436735 1.43674 0.415724 1.05495C0.399045 0.751871 0.520927 0.457621 0.747031 0.255106C1.03185 0 1.65824 0 2.91103 0H5H7.08897C8.34176 0 8.96815 0 9.25297 0.255106C9.47907 0.457621 9.60095 0.751871 9.58428 1.05495C9.56326 1.43674 9.12034 1.87966 8.23449 2.76551L6.14551 4.85449Z" fill="#FC5B5B"/>
</svg>
